<svg width="14" height="12" viewBox="0 0 14 12" fill="none" xmlns="http://www.w3.org/2000/svg">
<path d="M1 4.79126C0.585787 4.79126 0.25 5.12705 0.25 5.54126C0.25 5.95547 0.585786 6.29126 1 6.29126L1 4.79126ZM13.5303 6.07159C13.8232 5.7787 13.8232 5.30383 13.5303 5.01093L8.75736 0.23796C8.46447 -0.0549329 7.98959 -0.054933 7.6967 0.23796C7.40381 0.530853 7.40381 1.00573 7.6967 1.29862L11.9393 5.54126L7.6967 9.7839C7.40381 10.0768 7.4038 10.5517 7.6967 10.8446C7.98959 11.1375 8.46447 11.1375 8.75736 10.8446L13.5303 6.07159ZM1 6.29126L13 6.29126L13 4.79126L1 4.79126L1 6.29126Z" fill="#484848"/>
</svg>
